<svg width="30" height="28" viewBox="0 0 30 28" fill="none" xmlns="http://www.w3.org/2000/svg">
<path d="M27.2774 22.4809C27.2148 22.4809 27.1535 22.4862 27.092 22.4904L24.8955 9.7425C25.34 9.61433 25.7449 9.37358 26.0721 9.04293C26.3994 8.71229 26.6382 8.30263 26.7661 7.85257C26.8939 7.40252 26.9066 6.92687 26.803 6.47046C26.6993 6.01405 26.4827 5.59191 26.1736 5.2438C25.8645 4.8957 25.473 4.6331 25.0361 4.48075C24.5991 4.32841 24.1311 4.29133 23.6761 4.373C23.2211 4.45468 22.7941 4.65243 22.4354 4.94762C22.0767 5.24281 21.798 5.62572 21.6256 6.06026L11.8686 3.23656C11.9562 2.73213 11.9035 2.21295 11.7164 1.73717C11.5293 1.26138 11.2152 0.847795 10.8093 0.542722C10.4034 0.23765 9.92171 0.0531419 9.41821 0.00986568C8.9147 -0.0334105 8.40925 0.0662539 7.95846 0.297696C7.50768 0.529138 7.12937 0.883216 6.86591 1.32027C6.60245 1.75733 6.46424 2.2601 6.46676 2.77227C6.46929 3.28445 6.61244 3.7858 6.8802 4.22016C7.14795 4.65453 7.52973 5.00476 7.98277 5.23163L2.92901 19.0526C2.86149 19.0475 2.79401 19.0421 2.72521 19.0421C2.21461 19.0416 1.71417 19.1867 1.28102 19.4607C0.847867 19.7347 0.499473 20.1267 0.275614 20.5918C0.0517555 21.057 -0.0385435 21.5765 0.0150282 22.0912C0.0685998 22.6059 0.263883 23.0949 0.578578 23.5025C0.893274 23.91 1.3147 24.2197 1.79473 24.396C2.27476 24.5724 2.79405 24.6084 3.2933 24.4999C3.79255 24.3914 4.25164 24.1428 4.61814 23.7825C4.98465 23.4221 5.2438 22.9646 5.366 22.4621L24.5594 25.1504C24.5584 25.1806 24.5549 25.2101 24.5549 25.2404C24.5549 25.7862 24.7146 26.3198 25.0137 26.7736C25.3129 27.2274 25.7381 27.5811 26.2356 27.7899C26.733 27.9988 27.2805 28.0535 27.8086 27.947C28.3367 27.8405 28.8218 27.5777 29.2026 27.1917C29.5833 26.8058 29.8426 26.3141 29.9477 25.7788C30.0527 25.2435 29.9988 24.6887 29.7928 24.1844C29.5867 23.6802 29.2377 23.2492 28.79 22.946C28.3423 22.6427 27.8159 22.4809 27.2774 22.4809ZM27.2774 27.4241C26.8513 27.4241 26.4348 27.296 26.0805 27.0561C25.7262 26.8161 25.4501 26.4751 25.2871 26.0761C25.124 25.6771 25.0813 25.238 25.1645 24.8144C25.2476 24.3908 25.4528 24.0018 25.7541 23.6964C26.0554 23.391 26.4392 23.183 26.8571 23.0988C27.275 23.0145 27.7082 23.0577 28.1019 23.223C28.4955 23.3883 28.832 23.6682 29.0687 24.0273C29.3055 24.3864 29.4318 24.8086 29.4318 25.2404C29.4312 25.8194 29.204 26.3744 28.8001 26.7838C28.3962 27.1931 27.8486 27.4234 27.2774 27.4241ZM26.532 22.5882C25.9171 22.7655 25.3833 23.1563 25.0238 23.6921L18.6472 19.5648C18.8509 19.0386 18.8894 18.4614 18.7574 17.9121C18.6253 17.3629 18.3292 16.8683 17.9094 16.4961L22.815 9.49374C23.2222 9.72738 23.6822 9.85007 24.1502 9.84983C24.2128 9.84983 24.2741 9.84455 24.3357 9.84032L26.532 22.5882ZM0.570846 21.8017C0.570843 21.3698 0.697192 20.9476 0.933917 20.5885C1.17064 20.2294 1.50711 19.9495 1.90077 19.7842C2.29443 19.619 2.7276 19.5757 3.14551 19.66C3.56342 19.7442 3.94729 19.9522 4.24859 20.2576C4.54988 20.563 4.75507 20.9521 4.83819 21.3757C4.92132 21.7992 4.87866 22.2383 4.71559 22.6373C4.55253 23.0363 4.2764 23.3774 3.92212 23.6173C3.56783 23.8572 3.1513 23.9853 2.72521 23.9853C2.15403 23.9846 1.60644 23.7544 1.20256 23.345C0.798681 22.9356 0.571496 22.3806 0.570846 21.8017ZM4.9994 20.2865L13.9301 14.2937L14.7542 16.1752C14.2853 16.4442 13.9068 16.8498 13.668 17.3394C13.4291 17.829 13.3408 18.3799 13.4145 18.921L5.29075 20.8852C5.21799 20.6744 5.12016 20.4733 4.9994 20.2865ZM24.1502 4.90663C24.5763 4.90662 24.9928 5.03468 25.3471 5.27462C25.7014 5.51456 25.9775 5.85559 26.1406 6.2546C26.3036 6.65361 26.3463 7.09267 26.2632 7.51626C26.1801 7.93985 25.9749 8.32895 25.6736 8.63434C25.3723 8.93973 24.9884 9.14771 24.5705 9.23197C24.1526 9.31623 23.7194 9.27299 23.3258 9.10772C22.9321 8.94244 22.5956 8.66256 22.3589 8.30346C22.1222 7.94435 21.9958 7.52216 21.9958 7.09028C21.9965 6.51135 22.2236 5.95631 22.6275 5.54694C23.0314 5.13757 23.579 4.90729 24.1502 4.90663ZM22.3525 9.15901L17.447 16.1614C17.1196 15.9737 16.7572 15.8571 16.383 15.819C16.0087 15.7809 15.6307 15.8222 15.273 15.9401L14.4106 13.9712L22.0492 8.84543C22.1419 8.95792 22.2434 9.06277 22.3525 9.15901ZM16.1118 20.7485C15.6857 20.7485 15.2692 20.6204 14.9149 20.3804C14.5606 20.1405 14.2845 19.7995 14.1214 19.4005C13.9584 19.0015 13.9157 18.5624 13.9988 18.1388C14.0819 17.7152 14.2871 17.3261 14.5884 17.0208C14.8897 16.7154 15.2736 16.5074 15.6915 16.4231C16.1094 16.3389 16.5426 16.3821 16.9362 16.5474C17.3299 16.7127 17.6664 16.9926 17.9031 17.3517C18.1398 17.7108 18.2662 18.1329 18.2662 18.5648C18.2655 19.1438 18.0383 19.6988 17.6344 20.1082C17.2306 20.5175 16.683 20.7478 16.1118 20.7485ZM21.4708 6.61435C21.3636 7.21148 21.4572 7.82783 21.7367 8.3646L14.1768 13.4374L10.5468 5.15026C11.0746 4.8418 11.4854 4.3632 11.7138 3.79068L21.4708 6.61435ZM9.18927 0.576941C9.61537 0.576943 10.0319 0.705013 10.3862 0.944955C10.7405 1.1849 11.0166 1.52593 11.1796 1.92494C11.3427 2.32395 11.3854 2.763 11.3022 3.18659C11.2191 3.61017 11.0139 3.99926 10.7126 4.30464C10.4113 4.61003 10.0275 4.818 9.60956 4.90226C9.19166 4.98651 8.75848 4.94327 8.36483 4.778C7.97117 4.61272 7.6347 4.33284 7.39798 3.97375C7.16125 3.61465 7.0349 3.19247 7.03489 2.76059C7.03554 2.18165 7.26272 1.62661 7.66661 1.21724C8.07049 0.807865 8.61809 0.577593 9.18927 0.576941ZM8.5157 5.43152C9.01376 5.56378 9.53887 5.54771 10.0281 5.38523L13.6963 13.7599L4.63746 19.8385C4.31854 19.5193 3.92672 19.2849 3.49687 19.1563L8.5157 5.43152ZM5.44327 21.8917C5.44423 21.8616 5.44778 21.8321 5.44778 21.8017C5.44694 21.6825 5.43852 21.5636 5.42258 21.4455L13.5462 19.4811C13.7143 19.9662 14.0128 20.3939 14.408 20.716C14.8033 21.0382 15.2795 21.2419 15.783 21.3041C16.2864 21.3663 16.797 21.2846 17.2571 21.0682C17.7171 20.8517 18.1083 20.5092 18.3864 20.0793L24.7559 24.2021C24.7072 24.3249 24.6674 24.4511 24.6367 24.5798L5.44327 21.8917Z" fill="white"/>
</svg>
